<svg xmlns="http://www.w3.org/2000/svg" xmlns:xlink="http://www.w3.org/1999/xlink" width="500" zoomAndPan="magnify" viewBox="0 0 375 374.999991" height="500" preserveAspectRatio="xMidYMid meet" version="1.0"><defs><clipPath id="id1"><path d="M 6 36 L 52 36 L 52 80 L 6 80 Z M 6 36 " clip-rule="nonzero"/></clipPath><clipPath id="id2"><path d="M 0.00390625 52.539062 L 65.59375 0.0625 L 118.070312 65.652344 L 52.480469 118.128906 Z M 0.00390625 52.539062 " clip-rule="nonzero"/></clipPath><clipPath id="id3"><path d="M 0.00390625 52.539062 L 65.59375 0.0625 L 118.070312 65.652344 L 52.480469 118.128906 Z M 0.00390625 52.539062 " clip-rule="nonzero"/></clipPath><clipPath id="id4"><path d="M 41 8 L 87 8 L 87 52 L 41 52 Z M 41 8 " clip-rule="nonzero"/></clipPath><clipPath id="id5"><path d="M 0.00390625 52.539062 L 65.59375 0.0625 L 118.070312 65.652344 L 52.480469 118.128906 Z M 0.00390625 52.539062 " clip-rule="nonzero"/></clipPath><clipPath id="id6"><path d="M 0.00390625 52.539062 L 65.59375 0.0625 L 118.070312 65.652344 L 52.480469 118.128906 Z M 0.00390625 52.539062 " clip-rule="nonzero"/></clipPath><clipPath id="id7"><path d="M 29 24 L 65 24 L 65 64 L 29 64 Z M 29 24 " clip-rule="nonzero"/></clipPath><clipPath id="id8"><path d="M 0.00390625 52.539062 L 65.59375 0.0625 L 118.070312 65.652344 L 52.480469 118.128906 Z M 0.00390625 52.539062 " clip-rule="nonzero"/></clipPath><clipPath id="id9"><path d="M 0.00390625 52.539062 L 65.59375 0.0625 L 118.070312 65.652344 L 52.480469 118.128906 Z M 0.00390625 52.539062 " clip-rule="nonzero"/></clipPath><clipPath id="id10"><path d="M 51 60 L 101 60 L 101 102 L 51 102 Z M 51 60 " clip-rule="nonzero"/></clipPath><clipPath id="id11"><path d="M 0.00390625 52.539062 L 65.59375 0.0625 L 118.070312 65.652344 L 52.480469 118.128906 Z M 0.00390625 52.539062 " clip-rule="nonzero"/></clipPath><clipPath id="id12"><path d="M 0.00390625 52.539062 L 65.59375 0.0625 L 118.070312 65.652344 L 52.480469 118.128906 Z M 0.00390625 52.539062 " clip-rule="nonzero"/></clipPath><clipPath id="id13"><path d="M 53 59 L 89 59 L 89 90 L 53 90 Z M 53 59 " clip-rule="nonzero"/></clipPath><clipPath id="id14"><path d="M 0.00390625 52.539062 L 65.59375 0.0625 L 118.070312 65.652344 L 52.480469 118.128906 Z M 0.00390625 52.539062 " clip-rule="nonzero"/></clipPath><clipPath id="id15"><path d="M 0.00390625 52.539062 L 65.59375 0.0625 L 118.070312 65.652344 L 52.480469 118.128906 Z M 0.00390625 52.539062 " clip-rule="nonzero"/></clipPath><clipPath id="id16"><path d="M 54 57 L 77 57 L 77 78 L 54 78 Z M 54 57 " clip-rule="nonzero"/></clipPath><clipPath id="id17"><path d="M 0.00390625 52.539062 L 65.59375 0.0625 L 118.070312 65.652344 L 52.480469 118.128906 Z M 0.00390625 52.539062 " clip-rule="nonzero"/></clipPath><clipPath id="id18"><path d="M 0.00390625 52.539062 L 65.59375 0.0625 L 118.070312 65.652344 L 52.480469 118.128906 Z M 0.00390625 52.539062 " clip-rule="nonzero"/></clipPath><clipPath id="id19"><path d="M 66.015625 104.78125 L 293 104.78125 L 293 353.78125 L 66.015625 353.78125 Z M 66.015625 104.78125 " clip-rule="nonzero"/></clipPath><clipPath id="id20"><path d="M 282 8 L 331 8 L 331 57 L 282 57 Z M 282 8 " clip-rule="nonzero"/></clipPath><clipPath id="id21"><path d="M 307.417969 0.00390625 L 375.144531 61.527344 L 313.617188 129.253906 L 245.890625 67.726562 Z M 307.417969 0.00390625 " clip-rule="nonzero"/></clipPath><clipPath id="id22"><path d="M 307.417969 0.00390625 L 375.144531 61.527344 L 313.617188 129.253906 L 245.890625 67.726562 Z M 307.417969 0.00390625 " clip-rule="nonzero"/></clipPath><clipPath id="id23"><path d="M 318 41 L 368 41 L 368 90 L 318 90 Z M 318 41 " clip-rule="nonzero"/></clipPath><clipPath id="id24"><path d="M 307.417969 0.00390625 L 375.144531 61.527344 L 313.617188 129.253906 L 245.890625 67.726562 Z M 307.417969 0.00390625 " clip-rule="nonzero"/></clipPath><clipPath id="id25"><path d="M 307.417969 0.00390625 L 375.144531 61.527344 L 313.617188 129.253906 L 245.890625 67.726562 Z M 307.417969 0.00390625 " clip-rule="nonzero"/></clipPath><clipPath id="id26"><path d="M 305 28 L 345 28 L 345 70 L 305 70 Z M 305 28 " clip-rule="nonzero"/></clipPath><clipPath id="id27"><path d="M 307.417969 0.00390625 L 375.144531 61.527344 L 313.617188 129.253906 L 245.890625 67.726562 Z M 307.417969 0.00390625 " clip-rule="nonzero"/></clipPath><clipPath id="id28"><path d="M 307.417969 0.00390625 L 375.144531 61.527344 L 313.617188 129.253906 L 245.890625 67.726562 Z M 307.417969 0.00390625 " clip-rule="nonzero"/></clipPath><clipPath id="id29"><path d="M 264 63 L 316 63 L 316 111 L 264 111 Z M 264 63 " clip-rule="nonzero"/></clipPath><clipPath id="id30"><path d="M 307.417969 0.00390625 L 375.144531 61.527344 L 313.617188 129.253906 L 245.890625 67.726562 Z M 307.417969 0.00390625 " clip-rule="nonzero"/></clipPath><clipPath id="id31"><path d="M 307.417969 0.00390625 L 375.144531 61.527344 L 313.617188 129.253906 L 245.890625 67.726562 Z M 307.417969 0.00390625 " clip-rule="nonzero"/></clipPath><clipPath id="id32"><path d="M 277 62 L 316 62 L 316 98 L 277 98 Z M 277 62 " clip-rule="nonzero"/></clipPath><clipPath id="id33"><path d="M 307.417969 0.00390625 L 375.144531 61.527344 L 313.617188 129.253906 L 245.890625 67.726562 Z M 307.417969 0.00390625 " clip-rule="nonzero"/></clipPath><clipPath id="id34"><path d="M 307.417969 0.00390625 L 375.144531 61.527344 L 313.617188 129.253906 L 245.890625 67.726562 Z M 307.417969 0.00390625 " clip-rule="nonzero"/></clipPath><clipPath id="id35"><path d="M 290 62 L 315 62 L 315 85 L 290 85 Z M 290 62 " clip-rule="nonzero"/></clipPath><clipPath id="id36"><path d="M 307.417969 0.00390625 L 375.144531 61.527344 L 313.617188 129.253906 L 245.890625 67.726562 Z M 307.417969 0.00390625 " clip-rule="nonzero"/></clipPath><clipPath id="id37"><path d="M 307.417969 0.00390625 L 375.144531 61.527344 L 313.617188 129.253906 L 245.890625 67.726562 Z M 307.417969 0.00390625 " clip-rule="nonzero"/></clipPath></defs><g clip-path="url(#id1)"><g clip-path="url(#id2)"><g clip-path="url(#id3)"><path fill="#38b6ff" d="M 37.953125 37.542969 C 36.914062 36.25 35.03125 36.039062 33.734375 37.074219 L 7.96875 57.691406 C 6.671875 58.726562 6.464844 60.613281 7.5 61.90625 L 20.617188 78.304688 C 21.652344 79.601562 23.539062 79.808594 24.835938 78.773438 L 50.601562 58.15625 C 51.898438 57.121094 52.105469 55.234375 51.070312 53.941406 Z M 14.058594 60.5 L 23.429688 72.214844 L 44.511719 55.347656 L 35.140625 43.632812 L 14.058594 60.5 " fill-opacity="1" fill-rule="evenodd"/></g></g></g><g clip-path="url(#id4)"><g clip-path="url(#id5)"><g clip-path="url(#id6)"><path fill="#38b6ff" d="M 70.277344 15.523438 L 56.222656 26.765625 C 54.929688 27.800781 53.042969 27.59375 52.007812 26.296875 C 50.972656 25.003906 51.179688 23.117188 52.476562 22.082031 L 68.875 8.960938 C 70.167969 7.925781 72.054688 8.136719 73.089844 9.429688 L 86.210938 25.828125 C 87.246094 27.125 87.035156 29.007812 85.742188 30.046875 L 59.972656 50.660156 C 58.679688 51.695312 56.792969 51.488281 55.757812 50.191406 L 42.636719 33.796875 C 41.601562 32.5 41.808594 30.613281 43.105469 29.578125 C 44.398438 28.542969 46.285156 28.75 47.320312 30.046875 L 58.566406 44.101562 L 79.648438 27.234375 L 70.277344 15.523438 " fill-opacity="1" fill-rule="evenodd"/></g></g></g><g clip-path="url(#id7)"><g clip-path="url(#id8)"><g clip-path="url(#id9)"><path fill="#38b6ff" d="M 31.394531 38.949219 L 48.261719 60.03125 C 51.363281 63.910156 57.03125 64.542969 60.910156 61.4375 C 64.789062 58.332031 65.417969 52.667969 62.316406 48.785156 L 45.449219 27.703125 C 42.34375 23.824219 36.675781 23.195312 32.796875 26.300781 C 28.917969 29.402344 28.289062 35.070312 31.394531 38.949219 Z M 36.078125 35.199219 C 35.042969 33.90625 35.25 32.019531 36.546875 30.984375 C 37.839844 29.949219 39.726562 30.15625 40.761719 31.453125 L 57.628906 52.535156 C 58.667969 53.832031 58.457031 55.714844 57.160156 56.753906 C 55.867188 57.789062 53.980469 57.578125 52.945312 56.285156 L 36.078125 35.199219 " fill-opacity="1" fill-rule="evenodd"/></g></g></g><g clip-path="url(#id10)"><g clip-path="url(#id11)"><g clip-path="url(#id12)"><path fill="#38b6ff" d="M 94.820312 63.070312 C 93.761719 72.5625 88.980469 81.242188 81.527344 87.207031 C 74.074219 93.167969 64.554688 95.929688 55.0625 94.878906 C 53.417969 94.691406 51.933594 95.882812 51.753906 97.527344 C 51.5625 99.171875 52.75 100.660156 54.398438 100.832031 C 65.472656 102.066406 76.578125 98.847656 85.273438 91.890625 C 93.972656 84.929688 99.550781 74.804688 100.773438 63.730469 C 100.964844 62.085938 99.777344 60.597656 98.128906 60.421875 C 96.484375 60.234375 95 61.425781 94.820312 63.070312 " fill-opacity="1" fill-rule="evenodd"/></g></g></g><g clip-path="url(#id13)"><g clip-path="url(#id14)"><g clip-path="url(#id15)"><path fill="#38b6ff" d="M 82.886719 61.742188 C 82.183594 68.070312 79 73.859375 74.03125 77.835938 C 69.0625 81.808594 62.710938 83.648438 56.386719 82.945312 C 54.738281 82.761719 53.253906 83.953125 53.074219 85.59375 C 52.890625 87.242188 54.082031 88.730469 55.722656 88.90625 C 63.632812 89.789062 71.566406 87.492188 77.777344 82.519531 C 83.992188 77.550781 87.976562 70.316406 88.847656 62.40625 C 89.035156 60.761719 87.847656 59.277344 86.199219 59.09375 C 84.558594 58.90625 83.070312 60.097656 82.886719 61.742188 " fill-opacity="1" fill-rule="evenodd"/></g></g></g><g clip-path="url(#id16)"><g clip-path="url(#id17)"><g clip-path="url(#id18)"><path fill="#38b6ff" d="M 70.960938 60.417969 C 70.609375 63.582031 69.015625 66.476562 66.53125 68.464844 C 64.046875 70.453125 60.875 71.371094 57.710938 71.019531 C 56.0625 70.835938 54.578125 72.027344 54.398438 73.671875 C 54.214844 75.316406 55.40625 76.804688 57.050781 76.984375 C 61.792969 77.507812 66.550781 76.132812 70.28125 73.148438 C 74.011719 70.167969 76.398438 65.824219 76.925781 61.082031 C 77.109375 59.4375 75.921875 57.953125 74.273438 57.769531 C 72.632812 57.582031 71.144531 58.773438 70.960938 60.417969 " fill-opacity="1" fill-rule="evenodd"/></g></g></g><path fill="#38b6ff" d="M 151.714844 199.238281 C 151.714844 200.015625 151.636719 200.785156 151.488281 201.546875 C 151.335938 202.308594 151.109375 203.046875 150.8125 203.765625 C 150.515625 204.484375 150.152344 205.167969 149.71875 205.8125 C 149.289062 206.457031 148.796875 207.054688 148.246094 207.605469 C 147.699219 208.15625 147.101562 208.644531 146.453125 209.078125 C 145.808594 209.507812 145.125 209.875 144.40625 210.171875 C 143.691406 210.46875 142.949219 210.691406 142.1875 210.84375 C 141.425781 210.996094 140.65625 211.070312 139.878906 211.070312 C 139.101562 211.070312 138.332031 210.996094 137.570312 210.84375 C 136.808594 210.691406 136.066406 210.46875 135.347656 210.171875 C 134.632812 209.875 133.949219 209.507812 133.300781 209.078125 C 132.65625 208.644531 132.058594 208.15625 131.507812 207.605469 C 130.960938 207.054688 130.46875 206.457031 130.039062 205.8125 C 129.605469 205.167969 129.242188 204.484375 128.945312 203.765625 C 128.644531 203.046875 128.421875 202.308594 128.269531 201.546875 C 128.117188 200.785156 128.042969 200.015625 128.042969 199.238281 C 128.042969 198.460938 128.117188 197.691406 128.269531 196.929688 C 128.421875 196.167969 128.644531 195.425781 128.945312 194.710938 C 129.242188 193.992188 129.605469 193.308594 130.039062 192.664062 C 130.46875 192.019531 130.960938 191.421875 131.507812 190.871094 C 132.058594 190.320312 132.65625 189.832031 133.300781 189.398438 C 133.949219 188.96875 134.632812 188.601562 135.347656 188.304688 C 136.066406 188.007812 136.808594 187.785156 137.570312 187.632812 C 138.332031 187.480469 139.101562 187.40625 139.878906 187.40625 C 140.65625 187.40625 141.425781 187.480469 142.1875 187.632812 C 142.949219 187.785156 143.691406 188.007812 144.40625 188.304688 C 145.125 188.601562 145.808594 188.96875 146.453125 189.398438 C 147.101562 189.832031 147.699219 190.320312 148.246094 190.871094 C 148.796875 191.421875 149.289062 192.019531 149.71875 192.664062 C 150.152344 193.308594 150.515625 193.992188 150.8125 194.710938 C 151.109375 195.425781 151.335938 196.167969 151.488281 196.929688 C 151.636719 197.691406 151.714844 198.460938 151.714844 199.238281 Z M 151.714844 199.238281 " fill-opacity="1" fill-rule="nonzero"/><path fill="#38b6ff" d="M 230.984375 199.238281 C 230.984375 200.015625 230.910156 200.785156 230.757812 201.546875 C 230.605469 202.308594 230.382812 203.046875 230.085938 203.765625 C 229.789062 204.484375 229.421875 205.167969 228.992188 205.8125 C 228.558594 206.457031 228.070312 207.054688 227.519531 207.605469 C 226.96875 208.15625 226.371094 208.644531 225.726562 209.078125 C 225.078125 209.507812 224.398438 209.875 223.679688 210.171875 C 222.960938 210.46875 222.222656 210.691406 221.460938 210.84375 C 220.695312 210.996094 219.925781 211.070312 219.152344 211.070312 C 218.375 211.070312 217.605469 210.996094 216.839844 210.84375 C 216.078125 210.691406 215.339844 210.46875 214.621094 210.171875 C 213.902344 209.875 213.222656 209.507812 212.574219 209.078125 C 211.929688 208.644531 211.332031 208.15625 210.78125 207.605469 C 210.230469 207.054688 209.742188 206.457031 209.308594 205.8125 C 208.878906 205.167969 208.511719 204.484375 208.214844 203.765625 C 207.917969 203.046875 207.695312 202.308594 207.542969 201.546875 C 207.390625 200.785156 207.316406 200.015625 207.316406 199.238281 C 207.316406 198.460938 207.390625 197.691406 207.542969 196.929688 C 207.695312 196.167969 207.917969 195.425781 208.214844 194.710938 C 208.511719 193.992188 208.878906 193.308594 209.308594 192.664062 C 209.742188 192.019531 210.230469 191.421875 210.78125 190.871094 C 211.332031 190.320312 211.929688 189.832031 212.574219 189.398438 C 213.222656 188.96875 213.902344 188.601562 214.621094 188.304688 C 215.339844 188.007812 216.078125 187.785156 216.839844 187.632812 C 217.605469 187.480469 218.375 187.40625 219.152344 187.40625 C 219.925781 187.40625 220.695312 187.480469 221.460938 187.632812 C 222.222656 187.785156 222.960938 188.007812 223.679688 188.304688 C 224.398438 188.601562 225.078125 188.96875 225.726562 189.398438 C 226.371094 189.832031 226.96875 190.320312 227.519531 190.871094 C 228.070312 191.421875 228.558594 192.019531 228.992188 192.664062 C 229.421875 193.308594 229.789062 193.992188 230.085938 194.710938 C 230.382812 195.425781 230.605469 196.167969 230.757812 196.929688 C 230.910156 197.691406 230.984375 198.460938 230.984375 199.238281 Z M 230.984375 199.238281 " fill-opacity="1" fill-rule="nonzero"/><g clip-path="url(#id19)"><path fill="#38b6ff" d="M 267.558594 248.621094 L 264.84375 203.082031 C 264.816406 193.066406 263.082031 183.320312 259.667969 174.019531 C 267.203125 169.886719 274.148438 162.511719 279.050781 153.203125 C 288.863281 134.570312 277.175781 110.234375 276.679688 109.207031 L 274.554688 104.867188 L 269.773438 105.574219 C 268.644531 105.742188 241.964844 109.890625 232.152344 128.515625 C 231.175781 130.378906 230.300781 132.269531 229.539062 134.183594 C 215.046875 123.667969 197.625 117.972656 179.511719 117.972656 C 161.394531 117.972656 143.972656 123.667969 129.484375 134.183594 C 128.722656 132.273438 127.851562 130.382812 126.867188 128.515625 C 117.058594 109.890625 90.382812 105.742188 89.253906 105.574219 L 84.472656 104.867188 L 82.351562 109.207031 C 81.847656 110.234375 70.160156 134.570312 79.96875 153.203125 C 84.871094 162.511719 91.820312 169.886719 99.355469 174.019531 C 95.945312 183.320312 94.207031 193.066406 94.183594 203.082031 L 91.460938 248.625 C 76.191406 258.996094 66.132812 276.496094 66.132812 296.304688 C 66.132812 328.070312 91.980469 353.910156 123.753906 353.910156 L 235.273438 353.910156 C 267.042969 353.910156 292.890625 328.070312 292.890625 296.304688 C 292.890625 276.496094 282.832031 258.992188 267.558594 248.621094 Z M 226.03125 308.242188 L 241.445312 308.242188 L 241.445312 319.425781 L 226.03125 319.425781 Z M 212.820312 295.03125 L 100.375 295.03125 C 91.074219 295.03125 83.484375 287.628906 83.148438 278.40625 C 90.050781 262.816406 105.640625 251.902344 123.757812 251.902344 L 138.246094 251.902344 L 136.222656 243.714844 C 135.980469 242.726562 135.859375 241.804688 135.859375 240.894531 C 135.859375 234.417969 141.132812 229.152344 147.605469 229.152344 C 154.082031 229.152344 159.351562 234.417969 159.351562 240.894531 C 159.351562 241.800781 159.230469 242.726562 158.988281 243.71875 L 156.972656 251.902344 L 202.054688 251.902344 L 200.039062 243.71875 C 199.792969 242.726562 199.675781 241.800781 199.675781 240.894531 C 199.675781 234.417969 204.945312 229.152344 211.421875 229.152344 C 217.894531 229.152344 223.164062 234.417969 223.164062 240.894531 C 223.164062 241.800781 223.042969 242.726562 222.800781 243.71875 L 220.785156 251.902344 L 235.273438 251.902344 C 253.390625 251.902344 268.980469 262.816406 275.878906 278.40625 C 275.542969 287.628906 267.957031 295.03125 258.652344 295.03125 Z M 117.582031 308.242188 L 132.996094 308.242188 L 132.996094 319.425781 L 117.582031 319.425781 Z M 109.671875 164.066406 C 103.277344 162.367188 96.207031 155.6875 91.664062 147.050781 C 87.027344 138.246094 90.023438 126.300781 92.316406 119.765625 C 99.003906 121.578125 110.546875 125.871094 115.179688 134.667969 C 117.261719 138.628906 118.703125 142.714844 119.460938 146.816406 L 121.640625 158.644531 L 130.453125 150.460938 C 143.835938 138.03125 161.257812 131.183594 179.511719 131.183594 C 197.761719 131.183594 215.183594 138.03125 228.570312 150.460938 L 237.375 158.636719 L 239.5625 146.824219 C 240.320312 142.714844 241.761719 138.625 243.839844 134.671875 C 248.472656 125.878906 260.003906 121.585938 266.691406 119.773438 C 268.96875 126.328125 271.957031 138.3125 267.359375 147.050781 C 262.8125 155.6875 255.742188 162.367188 249.351562 164.066406 L 241.773438 166.085938 L 245.046875 173.207031 C 249.414062 182.699219 251.625 192.820312 251.625 203.285156 L 253.921875 241.804688 C 248.367188 239.902344 242.441406 238.808594 236.277344 238.703125 C 235.160156 225.96875 224.4375 215.945312 211.417969 215.945312 C 198.398438 215.945312 187.675781 225.964844 186.554688 238.695312 L 172.464844 238.695312 C 171.34375 225.964844 160.625 215.945312 147.601562 215.945312 C 134.582031 215.945312 123.855469 225.96875 122.742188 238.703125 C 116.578125 238.8125 110.65625 239.902344 105.105469 241.804688 L 107.382812 203.679688 L 107.390625 203.285156 C 107.390625 192.816406 109.605469 182.699219 113.96875 173.207031 L 117.246094 166.085938 Z M 235.273438 340.703125 L 123.753906 340.703125 C 100.492188 340.703125 81.390625 322.722656 79.53125 299.9375 C 84.988281 305.070312 92.308594 308.242188 100.371094 308.242188 L 104.367188 308.242188 L 104.367188 332.632812 L 146.203125 332.632812 L 146.203125 308.242188 L 212.816406 308.242188 L 212.816406 332.632812 L 254.652344 332.632812 L 254.652344 308.242188 L 258.648438 308.242188 C 266.710938 308.242188 274.03125 305.070312 279.488281 299.9375 C 277.636719 322.722656 258.53125 340.703125 235.273438 340.703125 Z M 235.273438 340.703125 " fill-opacity="1" fill-rule="nonzero"/></g><g clip-path="url(#id20)"><g clip-path="url(#id21)"><g clip-path="url(#id22)"><path fill="#38b6ff" d="M 330.074219 38.242188 C 331.289062 36.90625 331.1875 34.839844 329.851562 33.625 L 303.246094 9.457031 C 301.910156 8.242188 299.84375 8.339844 298.628906 9.675781 L 283.246094 26.609375 C 282.03125 27.945312 282.132812 30.011719 283.46875 31.226562 L 310.074219 55.394531 C 311.414062 56.609375 313.476562 56.511719 314.691406 55.175781 Z M 301.269531 16.492188 L 290.28125 28.585938 L 312.050781 48.359375 L 323.039062 36.265625 L 301.269531 16.492188 " fill-opacity="1" fill-rule="evenodd"/></g></g></g><g clip-path="url(#id23)"><g clip-path="url(#id24)"><g clip-path="url(#id25)"><path fill="#38b6ff" d="M 359.320312 69.226562 L 344.808594 56.042969 C 343.46875 54.828125 343.371094 52.765625 344.585938 51.425781 C 345.800781 50.089844 347.863281 49.992188 349.203125 51.207031 L 366.132812 66.585938 C 367.46875 67.800781 367.570312 69.867188 366.355469 71.203125 L 350.972656 88.132812 C 349.757812 89.472656 347.695312 89.570312 346.355469 88.355469 L 319.75 64.183594 C 318.414062 62.96875 318.316406 60.90625 319.527344 59.570312 L 334.910156 42.636719 C 336.125 41.300781 338.191406 41.203125 339.527344 42.417969 C 340.863281 43.628906 340.960938 45.695312 339.75 47.03125 L 326.5625 61.546875 L 348.332031 81.320312 L 359.320312 69.226562 " fill-opacity="1" fill-rule="evenodd"/></g></g></g><g clip-path="url(#id26)"><g clip-path="url(#id27)"><g clip-path="url(#id28)"><path fill="#38b6ff" d="M 327.433594 31.429688 L 307.65625 53.199219 C 304.015625 57.203125 304.316406 63.40625 308.320312 67.046875 C 312.328125 70.6875 318.53125 70.386719 322.167969 66.382812 L 341.945312 44.613281 C 345.585938 40.609375 345.289062 34.40625 341.28125 30.765625 C 337.273438 27.125 331.074219 27.421875 327.433594 31.429688 Z M 332.269531 35.824219 C 333.484375 34.488281 335.550781 34.386719 336.886719 35.601562 C 338.222656 36.816406 338.324219 38.882812 337.109375 40.21875 L 317.332031 61.988281 C 316.117188 63.324219 314.050781 63.421875 312.714844 62.210938 C 311.378906 60.996094 311.28125 58.929688 312.496094 57.59375 L 332.269531 35.824219 " fill-opacity="1" fill-rule="evenodd"/></g></g></g><g clip-path="url(#id29)"><g clip-path="url(#id30)"><g clip-path="url(#id31)"><path fill="#38b6ff" d="M 312.398438 103.800781 C 302.007812 104.296875 291.84375 100.644531 284.148438 93.652344 C 276.453125 86.660156 271.847656 76.898438 271.34375 66.507812 C 271.261719 64.707031 269.726562 63.3125 267.929688 63.402344 C 266.125 63.480469 264.730469 65.015625 264.824219 66.820312 C 265.402344 78.941406 270.773438 90.332031 279.753906 98.492188 C 288.734375 106.648438 300.589844 110.90625 312.710938 110.320312 C 314.511719 110.242188 315.910156 108.707031 315.8125 106.90625 C 315.730469 105.105469 314.195312 103.710938 312.398438 103.800781 " fill-opacity="1" fill-rule="evenodd"/></g></g></g><g clip-path="url(#id32)"><g clip-path="url(#id33)"><g clip-path="url(#id34)"><path fill="#38b6ff" d="M 311.769531 90.738281 C 304.847656 91.070312 298.070312 88.640625 292.9375 83.976562 C 287.808594 79.316406 284.742188 72.804688 284.410156 65.878906 C 284.320312 64.078125 282.785156 62.683594 280.988281 62.773438 C 279.183594 62.859375 277.789062 64.394531 277.878906 66.195312 C 278.292969 74.851562 282.128906 82.988281 288.542969 88.816406 C 294.960938 94.644531 303.425781 97.683594 312.082031 97.265625 C 313.882812 97.183594 315.277344 95.648438 315.191406 93.84375 C 315.109375 92.046875 313.574219 90.652344 311.769531 90.738281 " fill-opacity="1" fill-rule="evenodd"/></g></g></g><g clip-path="url(#id35)"><g clip-path="url(#id36)"><g clip-path="url(#id37)"><path fill="#38b6ff" d="M 311.144531 77.683594 C 307.683594 77.847656 304.292969 76.632812 301.730469 74.304688 C 299.164062 71.972656 297.628906 68.714844 297.464844 65.253906 C 297.375 63.449219 295.839844 62.054688 294.042969 62.148438 C 292.238281 62.234375 290.84375 63.769531 290.9375 65.566406 C 291.183594 70.761719 293.484375 75.644531 297.335938 79.140625 C 301.183594 82.636719 306.265625 84.460938 311.457031 84.210938 C 313.257812 84.128906 314.652344 82.59375 314.566406 80.789062 C 314.484375 78.992188 312.949219 77.597656 311.144531 77.683594 " fill-opacity="1" fill-rule="evenodd"/></g></g></g></svg>